<svg width="610" height="424" viewBox="0 0 610 424" fill="none" xmlns="http://www.w3.org/2000/svg">
<mask id="path-1-outside-1_363_134" maskUnits="userSpaceOnUse" x="-0.98291" y="0" width="611" height="424" fill="black">
<rect fill="white" x="-0.98291" width="611" height="424"/>
<path d="M121.517 20.5L104.517 38.5L141.017 26L207.517 13.5L200.017 4H160.517L121.517 20.5Z"/>
<path d="M488.517 20.5L505.517 38.5L469.017 26L402.517 13.5L410.017 4H449.517L488.517 20.5Z"/>
<path d="M442.517 160C442.517 148.402 451.919 139 463.517 139C475.115 139 484.517 148.402 484.517 160C484.517 171.598 475.115 181 463.517 181C451.919 181 442.517 171.598 442.517 160Z"/>
<path d="M484.517 118C484.517 106.402 493.919 97 505.517 97C517.115 97 526.517 106.402 526.517 118C526.517 129.598 517.115 139 505.517 139C493.919 139 484.517 129.598 484.517 118Z"/>
<path d="M400.517 118C400.517 106.402 409.919 97 421.517 97C433.115 97 442.517 106.402 442.517 118C442.517 129.598 433.115 139 421.517 139C409.919 139 400.517 129.598 400.517 118Z"/>
<path d="M442.517 78C442.517 66.402 451.919 57 463.517 57C475.115 57 484.517 66.402 484.517 78C484.517 89.598 475.115 99 463.517 99C451.919 99 442.517 89.598 442.517 78Z"/>
<path d="M454.969 68.5455H459.682L463.372 75.8494H463.526L467.216 68.5455H471.929L465.546 80.1705V86H461.352V80.1705L454.969 68.5455Z"/>
<path d="M418.108 109.545L421.296 115.06H421.432L424.653 109.545H429.375L424.108 118.273L429.546 127H424.705L421.432 121.426H421.296L418.023 127H413.216L418.628 118.273L413.352 109.545H418.108Z"/>
<path d="M459.614 169H455.08L460.969 151.545H466.585L472.474 169H467.94L463.841 155.943H463.705L459.614 169ZM459.009 162.131H468.486V165.335H459.009V162.131Z"/>
<path d="M498.838 127V109.545H506.117C507.423 109.545 508.517 109.73 509.398 110.099C510.284 110.469 510.949 110.986 511.392 111.651C511.841 112.315 512.065 113.085 512.065 113.96C512.065 114.625 511.926 115.219 511.648 115.741C511.369 116.259 510.986 116.688 510.497 117.028C510.009 117.369 509.443 117.608 508.801 117.744V117.915C509.506 117.949 510.156 118.139 510.753 118.486C511.355 118.832 511.838 119.315 512.202 119.935C512.565 120.548 512.747 121.276 512.747 122.116C512.747 123.054 512.509 123.892 512.031 124.631C511.554 125.364 510.864 125.943 509.96 126.369C509.057 126.79 507.96 127 506.671 127H498.838ZM503.057 123.599H505.665C506.58 123.599 507.253 123.426 507.685 123.08C508.122 122.733 508.341 122.25 508.341 121.631C508.341 121.182 508.236 120.795 508.026 120.472C507.815 120.142 507.517 119.889 507.131 119.713C506.744 119.531 506.281 119.44 505.742 119.44H503.057V123.599ZM503.057 116.722H505.392C505.852 116.722 506.261 116.645 506.619 116.491C506.977 116.338 507.256 116.116 507.455 115.827C507.659 115.537 507.761 115.188 507.761 114.778C507.761 114.193 507.554 113.733 507.139 113.398C506.724 113.063 506.165 112.895 505.46 112.895H503.057V116.722Z"/>
<path d="M212.517 199H242.517V229H212.517V199Z"/>
<path d="M212.517 169H242.517V199H212.517V169Z"/>
<path d="M182.517 199H212.517V229H182.517V199Z"/>
<path d="M242.517 199H272.517V229H242.517V199Z"/>
<path d="M212.517 229H242.517V259H212.517V229Z"/>
<path d="M227.517 174L216.517 193H238.517L227.517 174Z"/>
<path d="M227.517 254L216.517 235H238.517L227.517 254Z"/>
<path d="M267.517 214L248.517 203V225L267.517 214Z"/>
<path d="M188.517 214L207.517 203V225L188.517 214Z"/>
<path d="M250.517 115C250.517 108.373 255.89 103 262.517 103C269.145 103 274.517 108.373 274.517 115C274.517 121.627 269.145 127 262.517 127C255.89 127 250.517 121.627 250.517 115Z"/>
<path d="M338.517 115C338.517 108.373 343.89 103 350.517 103C357.145 103 362.517 108.373 362.517 115C362.517 121.627 357.145 127 350.517 127C343.89 127 338.517 121.627 338.517 115Z"/>
<path d="M287.517 148C287.517 141.373 292.89 136 299.517 136H313.517C320.145 136 325.517 141.373 325.517 148C325.517 154.627 320.145 160 313.517 160H299.517C292.89 160 287.517 154.627 287.517 148Z"/>
<path d="M123.517 115C123.517 99.536 136.053 87 151.517 87C166.981 87 179.517 99.536 179.517 115C179.517 130.464 166.981 143 151.517 143C136.053 143 123.517 130.464 123.517 115Z"/>
<path d="M359.517 209C359.517 193.536 372.053 181 387.517 181C402.981 181 415.517 193.536 415.517 209C415.517 224.464 402.981 237 387.517 237C372.053 237 359.517 224.464 359.517 209Z"/>
<path d="M284.517 55C284.517 42.8497 294.367 33 306.517 33C318.667 33 328.517 42.8497 328.517 55C328.517 67.1503 318.667 77 306.517 77C294.367 77 284.517 67.1503 284.517 55Z"/>
</mask>
<path d="M121.517 20.5L104.517 38.5L141.017 26L207.517 13.5L200.017 4H160.517L121.517 20.5Z" fill="#0095FF"/>
<path d="M488.517 20.5L505.517 38.5L469.017 26L402.517 13.5L410.017 4H449.517L488.517 20.5Z" fill="#FF0000"/>
<path d="M442.517 160C442.517 148.402 451.919 139 463.517 139C475.115 139 484.517 148.402 484.517 160C484.517 171.598 475.115 181 463.517 181C451.919 181 442.517 171.598 442.517 160Z" fill="#00FF77"/>
<path d="M484.517 118C484.517 106.402 493.919 97 505.517 97C517.115 97 526.517 106.402 526.517 118C526.517 129.598 517.115 139 505.517 139C493.919 139 484.517 129.598 484.517 118Z" fill="#FF0000"/>
<path d="M400.517 118C400.517 106.402 409.919 97 421.517 97C433.115 97 442.517 106.402 442.517 118C442.517 129.598 433.115 139 421.517 139C409.919 139 400.517 129.598 400.517 118Z" fill="#0095FF"/>
<path d="M442.517 78C442.517 66.402 451.919 57 463.517 57C475.115 57 484.517 66.402 484.517 78C484.517 89.598 475.115 99 463.517 99C451.919 99 442.517 89.598 442.517 78Z" fill="#FFA100"/>
<path d="M454.969 68.5455H459.682L463.372 75.8494H463.526L467.216 68.5455H471.929L465.546 80.1705V86H461.352V80.1705L454.969 68.5455Z" fill="white"/>
<path d="M418.108 109.545L421.296 115.06H421.432L424.653 109.545H429.375L424.108 118.273L429.546 127H424.705L421.432 121.426H421.296L418.023 127H413.216L418.628 118.273L413.352 109.545H418.108Z" fill="white"/>
<path d="M459.614 169H455.08L460.969 151.545H466.585L472.474 169H467.94L463.841 155.943H463.705L459.614 169ZM459.009 162.131H468.486V165.335H459.009V162.131Z" fill="white"/>
<path d="M498.838 127V109.545H506.117C507.423 109.545 508.517 109.73 509.398 110.099C510.284 110.469 510.949 110.986 511.392 111.651C511.841 112.315 512.065 113.085 512.065 113.96C512.065 114.625 511.926 115.219 511.648 115.741C511.369 116.259 510.986 116.688 510.497 117.028C510.009 117.369 509.443 117.608 508.801 117.744V117.915C509.506 117.949 510.156 118.139 510.753 118.486C511.355 118.832 511.838 119.315 512.202 119.935C512.565 120.548 512.747 121.276 512.747 122.116C512.747 123.054 512.509 123.892 512.031 124.631C511.554 125.364 510.864 125.943 509.96 126.369C509.057 126.79 507.96 127 506.671 127H498.838ZM503.057 123.599H505.665C506.58 123.599 507.253 123.426 507.685 123.08C508.122 122.733 508.341 122.25 508.341 121.631C508.341 121.182 508.236 120.795 508.026 120.472C507.815 120.142 507.517 119.889 507.131 119.713C506.744 119.531 506.281 119.44 505.742 119.44H503.057V123.599ZM503.057 116.722H505.392C505.852 116.722 506.261 116.645 506.619 116.491C506.977 116.338 507.256 116.116 507.455 115.827C507.659 115.537 507.761 115.188 507.761 114.778C507.761 114.193 507.554 113.733 507.139 113.398C506.724 113.063 506.165 112.895 505.46 112.895H503.057V116.722Z" fill="white"/>
<path d="M212.517 199H242.517V229H212.517V199Z" fill="#404040"/>
<path d="M212.517 169H242.517V199H212.517V169Z" fill="#FFA200"/>
<path d="M182.517 199H212.517V229H182.517V199Z" fill="#C800FF"/>
<path d="M242.517 199H272.517V229H242.517V199Z" fill="#C800FF"/>
<path d="M212.517 229H242.517V259H212.517V229Z" fill="#FBB100"/>
<path d="M227.517 174L216.517 193H238.517L227.517 174Z" fill="white"/>
<path d="M227.517 254L216.517 235H238.517L227.517 254Z" fill="white"/>
<path d="M267.517 214L248.517 203V225L267.517 214Z" fill="white"/>
<path d="M188.517 214L207.517 203V225L188.517 214Z" fill="white"/>
<path d="M250.517 115C250.517 108.373 255.89 103 262.517 103C269.145 103 274.517 108.373 274.517 115C274.517 121.627 269.145 127 262.517 127C255.89 127 250.517 121.627 250.517 115Z" fill="#333333"/>
<path d="M338.517 115C338.517 108.373 343.89 103 350.517 103C357.145 103 362.517 108.373 362.517 115C362.517 121.627 357.145 127 350.517 127C343.89 127 338.517 121.627 338.517 115Z" fill="#333333"/>
<path d="M287.517 148C287.517 141.373 292.89 136 299.517 136H313.517C320.145 136 325.517 141.373 325.517 148C325.517 154.627 320.145 160 313.517 160H299.517C292.89 160 287.517 154.627 287.517 148Z" fill="#333333"/>
<path d="M123.517 115C123.517 99.536 136.053 87 151.517 87C166.981 87 179.517 99.536 179.517 115C179.517 130.464 166.981 143 151.517 143C136.053 143 123.517 130.464 123.517 115Z" fill="#333333"/>
<path d="M359.517 209C359.517 193.536 372.053 181 387.517 181C402.981 181 415.517 193.536 415.517 209C415.517 224.464 402.981 237 387.517 237C372.053 237 359.517 224.464 359.517 209Z" fill="#333333"/>
<path d="M284.517 55C284.517 42.8497 294.367 33 306.517 33C318.667 33 328.517 42.8497 328.517 55C328.517 67.1503 318.667 77 306.517 77C294.367 77 284.517 67.1503 284.517 55Z" fill="#D9D9D9"/>
<path d="M190.517 304.5V302.5H189.928L189.433 302.819L190.517 304.5ZM159.517 324.5L158.433 322.819L158.193 322.974L158.006 323.19L159.517 324.5ZM75.0171 422V424H75.9304L76.5285 423.31L75.0171 422ZM50.0171 422L48.8521 423.626L49.3744 424H50.0171V422ZM20.0171 400.5L18.1861 401.305L18.4065 401.806L18.8521 402.126L20.0171 400.5ZM5.51709 367.5L3.52368 367.662L3.55093 367.997L3.68605 368.305L5.51709 367.5ZM2.01709 324.5L0.0609783 324.083L-0.000101805 324.37L0.0236824 324.662L2.01709 324.5ZM20.0171 240L18.1283 239.342L18.0871 239.461L18.061 239.583L20.0171 240ZM75.0171 82L73.2806 81.0077L73.189 81.1681L73.1283 81.3425L75.0171 82ZM95.0171 47L94.1309 45.207L93.5835 45.4776L93.2806 46.0077L95.0171 47ZM138.517 25.5L138.24 23.5192L137.921 23.5639L137.631 23.707L138.517 25.5ZM228.017 13V11H227.878L227.74 11.0192L228.017 13ZM413.649 304.5L414.712 302.806L414.225 302.5H413.649V304.5ZM445.532 324.5L447.025 323.169L446.836 322.957L446.595 322.806L445.532 324.5ZM532.438 422L530.945 423.331L531.542 424H532.438V422ZM558.15 422V424H558.778L559.294 423.641L558.15 422ZM589.005 400.5L590.148 402.141L590.6 401.826L590.827 401.324L589.005 400.5ZM603.917 367.5L605.74 368.324L605.882 368.01L605.91 367.667L603.917 367.5ZM607.517 324.5L609.51 324.667L609.535 324.366L609.471 324.072L607.517 324.5ZM589.005 240L590.958 239.572L590.931 239.447L590.887 239.326L589.005 240ZM532.438 82L534.321 81.3259L534.258 81.1488L534.163 80.9866L532.438 82ZM511.869 47L513.593 45.9866L513.284 45.4613L512.735 45.1974L511.869 47ZM467.13 25.5L467.996 23.6974L467.712 23.5607L467.399 23.5182L467.13 25.5ZM375.082 13L375.351 11.0182L375.217 11H375.082V13ZM212.517 199V197H210.517V199H212.517ZM242.517 199H244.517V197H242.517V199ZM242.517 229V231H244.517V229H242.517ZM212.517 229H210.517V231H212.517V229ZM190.517 304.5L189.433 302.819L158.433 322.819L159.517 324.5L160.601 326.181L191.601 306.181L190.517 304.5ZM159.517 324.5L158.006 323.19L73.5057 420.69L75.0171 422L76.5285 423.31L161.028 325.81L159.517 324.5ZM75.0171 422V420H50.0171V422V424H75.0171V422ZM50.0171 422L51.1821 420.374L21.1821 398.874L20.0171 400.5L18.8521 402.126L48.8521 423.626L50.0171 422ZM20.0171 400.5L21.8481 399.695L7.34813 366.695L5.51709 367.5L3.68605 368.305L18.1861 401.305L20.0171 400.5ZM5.51709 367.5L7.5105 367.338L4.0105 324.338L2.01709 324.5L0.0236824 324.662L3.52368 367.662L5.51709 367.5ZM2.01709 324.5L3.9732 324.917L21.9732 240.417L20.0171 240L18.061 239.583L0.0609783 324.083L2.01709 324.5ZM20.0171 240L21.9059 240.658L76.9059 82.6575L75.0171 82L73.1283 81.3425L18.1283 239.342L20.0171 240ZM75.0171 82L76.7536 82.9923L96.7536 47.9923L95.0171 47L93.2806 46.0077L73.2806 81.0077L75.0171 82ZM95.0171 47L95.9033 48.793L139.403 27.293L138.517 25.5L137.631 23.707L94.1309 45.207L95.0171 47ZM138.517 25.5L138.794 27.4808L228.294 14.9808L228.017 13L227.74 11.0192L138.24 23.5192L138.517 25.5ZM413.649 304.5L412.587 306.194L444.469 326.194L445.532 324.5L446.595 322.806L414.712 302.806L413.649 304.5ZM445.532 324.5L444.039 325.831L530.945 423.331L532.438 422L533.931 420.669L447.025 323.169L445.532 324.5ZM532.438 422V424H558.15V422V420H532.438V422ZM558.15 422L559.294 423.641L590.148 402.141L589.005 400.5L587.861 398.859L557.007 420.359L558.15 422ZM589.005 400.5L590.827 401.324L605.74 368.324L603.917 367.5L602.095 366.676L587.182 399.676L589.005 400.5ZM603.917 367.5L605.91 367.667L609.51 324.667L607.517 324.5L605.524 324.333L601.924 367.333L603.917 367.5ZM607.517 324.5L609.471 324.072L590.958 239.572L589.005 240L587.051 240.428L605.563 324.928L607.517 324.5ZM589.005 240L590.887 239.326L534.321 81.3259L532.438 82L530.555 82.6741L587.122 240.674L589.005 240ZM532.438 82L534.163 80.9866L513.593 45.9866L511.869 47L510.145 48.0134L530.714 83.0134L532.438 82ZM511.869 47L512.735 45.1974L467.996 23.6974L467.13 25.5L466.264 27.3026L511.003 48.8026L511.869 47ZM467.13 25.5L467.399 23.5182L375.351 11.0182L375.082 13L374.812 14.9818L466.861 27.4818L467.13 25.5ZM212.517 199V201H242.517V199V197H212.517V199ZM242.517 199H240.517V229H242.517H244.517V199H242.517ZM242.517 229V227H212.517V229V231H242.517V229ZM212.517 229H214.517V199H212.517H210.517V229H212.517ZM413.649 304.5V302.5H190.517V304.5V306.5H413.649V304.5ZM228.017 13V15H375.082V13V11H228.017V13ZM104.517 38.5L101.609 35.7535L105.813 42.2842L104.517 38.5ZM121.517 20.5L119.959 16.8161L119.185 17.1432L118.609 17.7535L121.517 20.5ZM160.517 4V0H159.706L158.959 0.316131L160.517 4ZM200.017 4L203.157 1.52142L201.955 0H200.017V4ZM207.517 13.5L208.256 17.4312L214.753 16.21L210.657 11.0214L207.517 13.5ZM141.017 26L140.278 22.0688L139.994 22.1222L139.721 22.2158L141.017 26ZM505.517 38.5L504.221 42.2842L508.425 35.7535L505.517 38.5ZM488.517 20.5L491.425 17.7535L490.849 17.1432L490.076 16.8161L488.517 20.5ZM449.517 4L451.076 0.316131L450.328 0H449.517V4ZM410.017 4V0H408.079L406.878 1.52142L410.017 4ZM402.517 13.5L399.378 11.0214L395.281 16.21L401.778 17.4312L402.517 13.5ZM469.017 26L470.313 22.2158L470.04 22.1222L469.756 22.0688L469.017 26ZM454.969 68.5455V64.5455H448.209L451.463 70.4708L454.969 68.5455ZM459.682 68.5455L463.252 66.7416L462.142 64.5455H459.682V68.5455ZM463.372 75.8494L459.802 77.6533L460.912 79.8494H463.372V75.8494ZM463.526 75.8494V79.8494H465.986L467.096 77.6533L463.526 75.8494ZM467.216 68.5455V64.5455H464.755L463.646 66.7416L467.216 68.5455ZM471.929 68.5455L475.435 70.4708L478.689 64.5455H471.929V68.5455ZM465.546 80.1705L462.039 78.2451L461.546 79.1445V80.1705H465.546ZM465.546 86V90H469.546V86H465.546ZM461.352 86H457.352V90H461.352V86ZM461.352 80.1705H465.352V79.1445L464.858 78.2451L461.352 80.1705ZM418.108 109.545L421.571 107.544L420.416 105.545H418.108V109.545ZM421.296 115.06L417.832 117.061L418.988 119.06H421.296V115.06ZM421.432 115.06V119.06H423.728L424.886 117.077L421.432 115.06ZM424.653 109.545V105.545H422.358L421.2 107.528L424.653 109.545ZM429.375 109.545L432.8 111.612L436.461 105.545H429.375V109.545ZM424.108 118.273L420.683 116.206L419.416 118.306L420.713 120.388L424.108 118.273ZM429.546 127V131H436.751L432.94 124.885L429.546 127ZM424.705 127L421.255 129.025L422.415 131H424.705V127ZM421.432 121.426L424.881 119.401L423.722 117.426H421.432V121.426ZM421.296 121.426V117.426H419.006L417.846 119.401L421.296 121.426ZM418.023 127V131H420.313L421.472 129.025L418.023 127ZM413.216 127L409.817 124.892L406.029 131H413.216V127ZM418.628 118.273L422.027 120.381L423.318 118.299L422.051 116.203L418.628 118.273ZM413.352 109.545V105.545H406.26L409.929 111.615L413.352 109.545ZM459.614 169V173H462.552L463.431 170.196L459.614 169ZM455.08 169L451.29 167.721L449.508 173H455.08V169ZM460.969 151.545V147.545H458.097L457.179 150.267L460.969 151.545ZM466.585 151.545L470.375 150.267L469.457 147.545H466.585V151.545ZM472.474 169V173H478.046L476.265 167.721L472.474 169ZM467.94 169L464.124 170.198L465.004 173H467.94V169ZM463.841 155.943L467.657 154.745L466.778 151.943H463.841V155.943ZM463.705 155.943V151.943H460.766L459.888 154.747L463.705 155.943ZM459.009 162.131V158.131H455.009V162.131H459.009ZM468.486 162.131H472.486V158.131H468.486V162.131ZM468.486 165.335V169.335H472.486V165.335H468.486ZM459.009 165.335H455.009V169.335H459.009V165.335ZM498.838 127H494.838V131H498.838V127ZM498.838 109.545V105.545H494.838V109.545H498.838ZM509.398 110.099L507.851 113.788L507.859 113.792L509.398 110.099ZM511.392 111.651L508.064 113.869L508.07 113.879L508.077 113.889L511.392 111.651ZM511.648 115.741L515.17 117.638L515.174 117.63L515.178 117.622L511.648 115.741ZM510.497 117.028L508.208 113.748V113.748L510.497 117.028ZM508.801 117.744L507.97 113.832L504.801 114.505V117.744H508.801ZM508.801 117.915H504.801V121.726L508.608 121.91L508.801 117.915ZM510.753 118.486L508.744 121.944L508.751 121.949L508.758 121.953L510.753 118.486ZM512.202 119.935L508.752 121.96L508.756 121.967L508.761 121.974L512.202 119.935ZM512.031 124.631L515.383 126.813L515.391 126.802L512.031 124.631ZM509.96 126.369L511.648 129.996L511.657 129.991L511.667 129.987L509.96 126.369ZM503.057 123.599H499.057V127.599H503.057V123.599ZM507.685 123.08L505.201 119.944L505.191 119.952L505.181 119.96L507.685 123.08ZM508.026 120.472L504.653 122.623L504.662 122.636L504.67 122.649L508.026 120.472ZM507.131 119.713L505.428 123.332L505.449 123.343L505.471 123.353L507.131 119.713ZM503.057 119.44V115.44H499.057V119.44H503.057ZM503.057 116.722H499.057V120.722H503.057V116.722ZM507.455 115.827L504.187 113.52L504.171 113.542L504.157 113.563L507.455 115.827ZM507.139 113.398L509.654 110.287V110.287L507.139 113.398ZM503.057 112.895V108.895H499.057V112.895H503.057ZM212.517 199V203H216.517V199H212.517ZM242.517 199H238.517V203H242.517V199ZM242.517 229V225H238.517V229H242.517ZM212.517 229H216.517V225H212.517V229ZM212.517 169V165H208.517V169H212.517ZM242.517 169H246.517V165H242.517V169ZM182.517 199V195H178.517V199H182.517ZM182.517 229H178.517V233H182.517V229ZM272.517 199H276.517V195H272.517V199ZM272.517 229V233H276.517V229H272.517ZM242.517 259V263H246.517V259H242.517ZM212.517 259H208.517V263H212.517V259ZM216.517 193L213.055 190.996L209.579 197H216.517V193ZM227.517 174L230.979 171.996L227.517 166.017L224.055 171.996L227.517 174ZM238.517 193V197H245.455L241.979 190.996L238.517 193ZM216.517 235V231H209.579L213.055 237.004L216.517 235ZM227.517 254L224.055 256.004L227.517 261.983L230.979 256.004L227.517 254ZM238.517 235L241.979 237.004L245.455 231H238.517V235ZM248.517 203L250.521 199.538L244.517 196.062V203H248.517ZM267.517 214L269.521 217.462L275.501 214L269.521 210.538L267.517 214ZM248.517 225H244.517V231.938L250.521 228.462L248.517 225ZM207.517 203H211.517V196.062L205.513 199.538L207.517 203ZM188.517 214L186.513 210.538L180.534 214L186.513 217.462L188.517 214ZM207.517 225L205.513 228.462L211.517 231.938V225H207.517ZM104.517 38.5L107.425 41.2465L124.425 23.2465L121.517 20.5L118.609 17.7535L101.609 35.7535L104.517 38.5ZM121.517 20.5L123.076 24.1839L162.076 7.68387L160.517 4L158.959 0.316131L119.959 16.8161L121.517 20.5ZM160.517 4V8H200.017V4V0H160.517V4ZM200.017 4L196.878 6.47858L204.378 15.9786L207.517 13.5L210.657 11.0214L203.157 1.52142L200.017 4ZM207.517 13.5L206.778 9.56885L140.278 22.0688L141.017 26L141.756 29.9312L208.256 17.4312L207.517 13.5ZM141.017 26L139.721 22.2158L103.221 34.7158L104.517 38.5L105.813 42.2842L142.313 29.7842L141.017 26ZM505.517 38.5L508.425 35.7535L491.425 17.7535L488.517 20.5L485.609 23.2465L502.609 41.2465L505.517 38.5ZM488.517 20.5L490.076 16.8161L451.076 0.316131L449.517 4L447.959 7.68387L486.959 24.1839L488.517 20.5ZM449.517 4V0H410.017V4V8H449.517V4ZM410.017 4L406.878 1.52142L399.378 11.0214L402.517 13.5L405.657 15.9786L413.157 6.47858L410.017 4ZM402.517 13.5L401.778 17.4312L468.278 29.9312L469.017 26L469.756 22.0688L403.256 9.56885L402.517 13.5ZM469.017 26L467.721 29.7842L504.221 42.2842L505.517 38.5L506.813 34.7158L470.313 22.2158L469.017 26ZM463.517 181V177C454.128 177 446.517 169.389 446.517 160H442.517H438.517C438.517 173.807 449.71 185 463.517 185V181ZM484.517 160H480.517C480.517 169.389 472.906 177 463.517 177V181V185C477.324 185 488.517 173.807 488.517 160H484.517ZM463.517 139V143C472.906 143 480.517 150.611 480.517 160H484.517H488.517C488.517 146.193 477.324 135 463.517 135V139ZM463.517 139V135C449.71 135 438.517 146.193 438.517 160H442.517H446.517C446.517 150.611 454.128 143 463.517 143V139ZM505.517 139V135C496.128 135 488.517 127.389 488.517 118H484.517H480.517C480.517 131.807 491.71 143 505.517 143V139ZM526.517 118H522.517C522.517 127.389 514.906 135 505.517 135V139V143C519.324 143 530.517 131.807 530.517 118H526.517ZM505.517 97V101C514.906 101 522.517 108.611 522.517 118H526.517H530.517C530.517 104.193 519.324 93 505.517 93V97ZM505.517 97V93C491.71 93 480.517 104.193 480.517 118H484.517H488.517C488.517 108.611 496.128 101 505.517 101V97ZM421.517 139V135C412.128 135 404.517 127.389 404.517 118H400.517H396.517C396.517 131.807 407.71 143 421.517 143V139ZM442.517 118H438.517C438.517 127.389 430.906 135 421.517 135V139V143C435.324 143 446.517 131.807 446.517 118H442.517ZM421.517 97V101C430.906 101 438.517 108.611 438.517 118H442.517H446.517C446.517 104.193 435.324 93 421.517 93V97ZM421.517 97V93C407.71 93 396.517 104.193 396.517 118H400.517H404.517C404.517 108.611 412.128 101 421.517 101V97ZM463.517 99V95C454.128 95 446.517 87.3888 446.517 78H442.517H438.517C438.517 91.8071 449.71 103 463.517 103V99ZM484.517 78H480.517C480.517 87.3888 472.906 95 463.517 95V99V103C477.324 103 488.517 91.8071 488.517 78H484.517ZM463.517 57V61C472.906 61 480.517 68.6112 480.517 78H484.517H488.517C488.517 64.1929 477.324 53 463.517 53V57ZM463.517 57V53C449.71 53 438.517 64.1929 438.517 78H442.517H446.517C446.517 68.6112 454.128 61 463.517 61V57ZM454.969 68.5455V72.5455H459.682V68.5455V64.5455H454.969V68.5455ZM459.682 68.5455L456.112 70.3493L459.802 77.6533L463.372 75.8494L466.942 74.0456L463.252 66.7416L459.682 68.5455ZM463.372 75.8494V79.8494H463.526V75.8494V71.8494H463.372V75.8494ZM463.526 75.8494L467.096 77.6533L470.786 70.3493L467.216 68.5455L463.646 66.7416L459.955 74.0456L463.526 75.8494ZM467.216 68.5455V72.5455H471.929V68.5455V64.5455H467.216V68.5455ZM471.929 68.5455L468.423 66.6202L462.039 78.2451L465.546 80.1705L469.052 82.0958L475.435 70.4708L471.929 68.5455ZM465.546 80.1705H461.546V86H465.546H469.546V80.1705H465.546ZM465.546 86V82H461.352V86V90H465.546V86ZM461.352 86H465.352V80.1705H461.352H457.352V86H461.352ZM461.352 80.1705L464.858 78.2451L458.475 66.6201L454.969 68.5455L451.463 70.4708L457.846 82.0958L461.352 80.1705ZM418.108 109.545L414.645 111.547L417.832 117.061L421.296 115.06L424.759 113.058L421.571 107.544L418.108 109.545ZM421.296 115.06V119.06H421.432V115.06V111.06H421.296V115.06ZM421.432 115.06L424.886 117.077L428.107 111.563L424.653 109.545L421.2 107.528L417.978 113.042L421.432 115.06ZM424.653 109.545V113.545H429.375V109.545V105.545H424.653V109.545ZM429.375 109.545L425.95 107.479L420.683 116.206L424.108 118.273L427.533 120.34L432.8 111.612L429.375 109.545ZM424.108 118.273L420.713 120.388L426.151 129.115L429.546 127L432.94 124.885L427.503 116.158L424.108 118.273ZM429.546 127V123H424.705V127V131H429.546V127ZM424.705 127L428.154 124.975L424.881 119.401L421.432 121.426L417.982 123.451L421.255 129.025L424.705 127ZM421.432 121.426V117.426H421.296V121.426V125.426H421.432V121.426ZM421.296 121.426L417.846 119.401L414.573 124.975L418.023 127L421.472 129.025L424.745 123.451L421.296 121.426ZM418.023 127V123H413.216V127V131H418.023V127ZM413.216 127L416.615 129.108L422.027 120.381L418.628 118.273L415.228 116.165L409.817 124.892L413.216 127ZM418.628 118.273L422.051 116.203L416.775 107.476L413.352 109.545L409.929 111.615L415.205 120.342L418.628 118.273ZM413.352 109.545V113.545H418.108V109.545V105.545H413.352V109.545ZM459.614 169V165H455.08V169V173H459.614V169ZM455.08 169L458.87 170.279L464.759 152.824L460.969 151.545L457.179 150.267L451.29 167.721L455.08 169ZM460.969 151.545V155.545H466.585V151.545V147.545H460.969V151.545ZM466.585 151.545L462.795 152.824L468.684 170.279L472.474 169L476.265 167.721L470.375 150.267L466.585 151.545ZM472.474 169V165H467.94V169V173H472.474V169ZM467.94 169L471.757 167.802L467.657 154.745L463.841 155.943L460.025 157.141L464.124 170.198L467.94 169ZM463.841 155.943V151.943H463.705V155.943V159.943H463.841V155.943ZM463.705 155.943L459.888 154.747L455.797 167.804L459.614 169L463.431 170.196L467.522 157.139L463.705 155.943ZM459.009 162.131V166.131H468.486V162.131V158.131H459.009V162.131ZM468.486 162.131H464.486V165.335H468.486H472.486V162.131H468.486ZM468.486 165.335V161.335H459.009V165.335V169.335H468.486V165.335ZM459.009 165.335H463.009V162.131H459.009H455.009V165.335H459.009ZM498.838 127H502.838V109.545H498.838H494.838V127H498.838ZM498.838 109.545V113.545H506.117V109.545V105.545H498.838V109.545ZM506.117 109.545V113.545C507.076 113.545 507.605 113.685 507.851 113.788L509.398 110.099L510.945 106.411C509.429 105.775 507.771 105.545 506.117 105.545V109.545ZM509.398 110.099L507.859 113.792C508.019 113.858 508.09 113.909 508.105 113.922C508.117 113.931 508.093 113.914 508.064 113.869L511.392 111.651L514.72 109.432C513.757 107.987 512.402 107.018 510.936 106.407L509.398 110.099ZM511.392 111.651L508.077 113.889C508.075 113.886 508.07 113.879 508.066 113.868C508.061 113.858 508.058 113.85 508.057 113.846C508.056 113.842 508.058 113.848 508.06 113.864C508.062 113.882 508.065 113.913 508.065 113.96H512.065H516.065C516.065 112.363 515.643 110.798 514.707 109.412L511.392 111.651ZM512.065 113.96H508.065C508.065 114.013 508.06 114.019 508.067 113.991C508.074 113.961 508.089 113.914 508.117 113.861L511.648 115.741L515.178 117.622C515.801 116.452 516.065 115.199 516.065 113.96H512.065ZM511.648 115.741L508.126 113.845C508.133 113.832 508.147 113.81 508.169 113.785C508.18 113.774 508.189 113.764 508.197 113.757C508.205 113.751 508.209 113.748 508.208 113.748L510.497 117.028L512.786 120.309C513.781 119.615 514.59 118.715 515.17 117.638L511.648 115.741ZM510.497 117.028L508.208 113.748C508.201 113.753 508.142 113.795 507.97 113.832L508.801 117.744L509.632 121.657C510.744 121.421 511.816 120.986 512.786 120.309L510.497 117.028ZM508.801 117.744H504.801V117.915H508.801H512.801V117.744H508.801ZM508.801 117.915L508.608 121.91C508.688 121.914 508.713 121.927 508.744 121.944L510.753 118.486L512.762 115.027C511.599 114.351 510.324 113.984 508.995 113.919L508.801 117.915ZM510.753 118.486L508.758 121.953C508.76 121.954 508.758 121.953 508.753 121.949C508.748 121.945 508.743 121.941 508.738 121.936C508.734 121.932 508.733 121.93 508.734 121.932C508.736 121.934 508.742 121.943 508.752 121.96L512.202 119.935L515.651 117.909C514.948 116.712 513.973 115.724 512.748 115.019L510.753 118.486ZM512.202 119.935L508.761 121.974C508.735 121.931 508.728 121.903 508.73 121.91C508.733 121.921 508.747 121.984 508.747 122.116H512.747H516.747C516.747 120.688 516.433 119.229 515.643 117.895L512.202 119.935ZM512.747 122.116H508.747C508.747 122.337 508.703 122.411 508.672 122.46L512.031 124.631L515.391 126.802C516.314 125.373 516.747 123.771 516.747 122.116H512.747ZM512.031 124.631L508.679 122.448C508.662 122.475 508.584 122.596 508.254 122.752L509.96 126.369L511.667 129.987C513.144 129.29 514.446 128.252 515.383 126.813L512.031 124.631ZM509.96 126.369L508.272 122.743C508.029 122.856 507.542 123 506.671 123V127V131C508.378 131 510.084 130.724 511.648 129.996L509.96 126.369ZM506.671 127V123H498.838V127V131H506.671V127ZM503.057 123.599V127.599H505.665V123.599V119.599H503.057V123.599ZM505.665 123.599V127.599C506.943 127.599 508.713 127.383 510.188 126.199L507.685 123.08L505.181 119.96C505.506 119.699 505.782 119.616 505.859 119.596C505.932 119.577 505.885 119.599 505.665 119.599V123.599ZM507.685 123.08L510.169 126.215C511.677 125.02 512.341 123.319 512.341 121.631H508.341H504.341C504.341 121.466 504.372 121.164 504.533 120.807C504.701 120.437 504.947 120.145 505.201 119.944L507.685 123.08ZM508.341 121.631H512.341C512.341 120.537 512.077 119.366 511.381 118.294L508.026 120.472L504.67 122.649C504.395 122.225 504.341 121.826 504.341 121.631H508.341ZM508.026 120.472L511.398 118.32C510.736 117.284 509.816 116.541 508.79 116.073L507.131 119.713L505.471 123.353C505.359 123.301 505.212 123.217 505.058 123.086C504.902 122.954 504.764 122.796 504.653 122.623L508.026 120.472ZM507.131 119.713L508.834 116.094C507.793 115.604 506.719 115.44 505.742 115.44V119.44V123.44C505.843 123.44 505.695 123.458 505.428 123.332L507.131 119.713ZM505.742 119.44V115.44H503.057V119.44V123.44H505.742V119.44ZM503.057 119.44H499.057V123.599H503.057H507.057V119.44H503.057ZM503.057 116.722V120.722H505.392V116.722V112.722H503.057V116.722ZM505.392 116.722V120.722C506.297 120.722 507.257 120.57 508.195 120.168L506.619 116.491L505.044 112.815C505.266 112.72 505.408 112.722 505.392 112.722V116.722ZM506.619 116.491L508.195 120.168C509.171 119.75 510.08 119.071 510.753 118.09L507.455 115.827L504.157 113.563C504.432 113.162 504.783 112.927 505.044 112.815L506.619 116.491ZM507.455 115.827L510.722 118.133C511.474 117.069 511.761 115.883 511.761 114.778H507.761H503.761C503.761 114.492 503.845 114.005 504.187 113.52L507.455 115.827ZM507.761 114.778H511.761C511.761 113.119 511.107 111.462 509.654 110.287L507.139 113.398L504.625 116.509C504.373 116.305 504.127 116.011 503.959 115.638C503.796 115.275 503.761 114.963 503.761 114.778H507.761ZM507.139 113.398L509.654 110.287C508.327 109.215 506.784 108.895 505.46 108.895V112.895V116.895C505.545 116.895 505.122 116.91 504.625 116.509L507.139 113.398ZM505.46 112.895V108.895H503.057V112.895V116.895H505.46V112.895ZM503.057 112.895H499.057V116.722H503.057H507.057V112.895H503.057ZM212.517 169V173H242.517V169V165H212.517V169ZM242.517 169H238.517V199H242.517H246.517V169H242.517ZM212.517 199H216.517V169H212.517H208.517V199H212.517ZM182.517 199V203H212.517V199V195H182.517V199ZM212.517 229V225H182.517V229V233H212.517V229ZM182.517 229H186.517V199H182.517H178.517V229H182.517ZM242.517 199V203H272.517V199V195H242.517V199ZM272.517 199H268.517V229H272.517H276.517V199H272.517ZM272.517 229V225H242.517V229V233H272.517V229ZM242.517 229H238.517V259H242.517H246.517V229H242.517ZM242.517 259V255H212.517V259V263H242.517V259ZM212.517 259H216.517V229H212.517H208.517V259H212.517ZM216.517 193L219.979 195.004L230.979 176.004L227.517 174L224.055 171.996L213.055 190.996L216.517 193ZM227.517 174L224.055 176.004L235.055 195.004L238.517 193L241.979 190.996L230.979 171.996L227.517 174ZM238.517 193V189H216.517V193V197H238.517V193ZM216.517 235L213.055 237.004L224.055 256.004L227.517 254L230.979 251.996L219.979 232.996L216.517 235ZM227.517 254L230.979 256.004L241.979 237.004L238.517 235L235.055 232.996L224.055 251.996L227.517 254ZM238.517 235V231H216.517V235V239H238.517V235ZM248.517 203L246.513 206.462L265.513 217.462L267.517 214L269.521 210.538L250.521 199.538L248.517 203ZM267.517 214L265.513 210.538L246.513 221.538L248.517 225L250.521 228.462L269.521 217.462L267.517 214ZM248.517 225H252.517V203H248.517H244.517V225H248.517ZM207.517 203L205.513 199.538L186.513 210.538L188.517 214L190.521 217.462L209.521 206.462L207.517 203ZM188.517 214L186.513 217.462L205.513 228.462L207.517 225L209.521 221.538L190.521 210.538L188.517 214ZM207.517 225H211.517V203H207.517H203.517V225H207.517ZM262.517 127V123C258.099 123 254.517 119.418 254.517 115H250.517H246.517C246.517 123.837 253.681 131 262.517 131V127ZM274.517 115H270.517C270.517 119.418 266.935 123 262.517 123V127V131C271.354 131 278.517 123.837 278.517 115H274.517ZM262.517 103V107C266.935 107 270.517 110.582 270.517 115H274.517H278.517C278.517 106.163 271.354 99 262.517 99V103ZM262.517 103V99C253.681 99 246.517 106.163 246.517 115H250.517H254.517C254.517 110.582 258.099 107 262.517 107V103ZM350.517 127V123C346.099 123 342.517 119.418 342.517 115H338.517H334.517C334.517 123.837 341.681 131 350.517 131V127ZM362.517 115H358.517C358.517 119.418 354.935 123 350.517 123V127V131C359.354 131 366.517 123.837 366.517 115H362.517ZM350.517 103V107C354.935 107 358.517 110.582 358.517 115H362.517H366.517C366.517 106.163 359.354 99 350.517 99V103ZM350.517 103V99C341.681 99 334.517 106.163 334.517 115H338.517H342.517C342.517 110.582 346.099 107 350.517 107V103ZM299.517 136V140H313.517V136V132H299.517V136ZM313.517 160V156H299.517V160V164H313.517V160ZM299.517 160V156C295.099 156 291.517 152.418 291.517 148H287.517H283.517C283.517 156.837 290.681 164 299.517 164V160ZM325.517 148H321.517C321.517 152.418 317.935 156 313.517 156V160V164C322.354 164 329.517 156.837 329.517 148H325.517ZM313.517 136V140C317.935 140 321.517 143.582 321.517 148H325.517H329.517C329.517 139.163 322.354 132 313.517 132V136ZM299.517 136V132C290.681 132 283.517 139.163 283.517 148H287.517H291.517C291.517 143.582 295.099 140 299.517 140V136ZM151.517 143V139C138.262 139 127.517 128.255 127.517 115H123.517H119.517C119.517 132.673 133.844 147 151.517 147V143ZM179.517 115H175.517C175.517 128.255 164.772 139 151.517 139V143V147C169.19 147 183.517 132.673 183.517 115H179.517ZM151.517 87V91C164.772 91 175.517 101.745 175.517 115H179.517H183.517C183.517 97.3269 169.19 83 151.517 83V87ZM151.517 87V83C133.844 83 119.517 97.3269 119.517 115H123.517H127.517C127.517 101.745 138.262 91 151.517 91V87ZM387.517 237V233C374.262 233 363.517 222.255 363.517 209H359.517H355.517C355.517 226.673 369.844 241 387.517 241V237ZM415.517 209H411.517C411.517 222.255 400.772 233 387.517 233V237V241C405.19 241 419.517 226.673 419.517 209H415.517ZM387.517 181V185C400.772 185 411.517 195.745 411.517 209H415.517H419.517C419.517 191.327 405.19 177 387.517 177V181ZM387.517 181V177C369.844 177 355.517 191.327 355.517 209H359.517H363.517C363.517 195.745 374.262 185 387.517 185V181ZM306.517 77V73C296.576 73 288.517 64.9411 288.517 55H284.517H280.517C280.517 69.3594 292.158 81 306.517 81V77ZM328.517 55H324.517C324.517 64.9411 316.458 73 306.517 73V77V81C320.876 81 332.517 69.3594 332.517 55H328.517ZM306.517 33V37C316.458 37 324.517 45.0589 324.517 55H328.517H332.517C332.517 40.6406 320.876 29 306.517 29V33ZM306.517 33V29C292.158 29 280.517 40.6406 280.517 55H284.517H288.517C288.517 45.0589 296.576 37 306.517 37V33Z" fill="black" mask="url(#path-1-outside-1_363_134)"/>
</svg>
