<svg width="733" height="692" viewBox="0 0 733 692" fill="none" xmlns="http://www.w3.org/2000/svg">
<path d="M61 461.31L102 544.81L170 528.81L208 544.81L237.5 570.81L347 588.81L380.5 670.81L450 679.81L526.5 670.81L596.5 660.81L694.5 618.81L704.5 570.81L682.5 528.81L650 432.81L594 314.31L596.5 277.31L659.5 234.31L673.5 202.81L682 215.31V228.31L673.5 230.31L671.5 234.31L677 242.31H707.5L720.5 230.31V209.81L704.5 175.81L682.5 165.81L632.5 155.81H594L562.5 175.81L540 155.81L516 146.81L505.5 132.31L464 105.81L360 84.8096V66.8096L347 53.8096L328 40.8096L307.5 46.8096L292 62.3096L278.5 40.8096L186.5 25.3096H168.5L154.5 40.8096L133.5 44.3096L132.5 25.3096L127 14.8096L113 19.8096V46.8096L76 71.3096L43 109.81L12 194.81V286.31L28.5 358.31L61 436.81V461.31Z" stroke="#FFA200" stroke-width="24"/>
</svg>
