<svg width="2193" height="2433" viewBox="0 0 2193 2433" fill="none" xmlns="http://www.w3.org/2000/svg">
<path d="M351.875 461.31L392.875 544.81L460.875 528.81L498.875 544.81L528.375 570.81L637.875 588.81L671.375 670.81L740.875 679.81L817.375 670.81L887.375 660.81L985.375 618.81L995.375 570.81L973.375 528.81L940.875 432.81L884.875 314.31L887.375 277.31L950.375 234.31L964.375 202.81L972.875 215.31V228.31L964.375 230.31L962.375 234.31L967.875 242.31H998.375L1011.38 230.31V209.81L995.375 175.81L973.375 165.81L923.375 155.81H884.875L853.375 175.81L830.875 155.81L806.875 146.81L796.375 132.31L754.875 105.81L650.875 84.8096V66.8096L637.875 53.8096L618.875 40.8096L598.375 46.8096L582.875 62.3096L569.375 40.8096L477.375 25.3096H459.375L445.375 40.8096L424.375 44.3096L423.375 25.3096L417.875 14.8096L403.875 19.8096V46.8096L366.875 71.3096L333.875 109.81L302.875 194.81V286.31L319.375 358.31L351.875 436.81V461.31Z" stroke="#FFA200" stroke-width="24"/>
<path d="M392.875 632.81L394.5 639.31M934.875 392.31L985.875 383.31L990.375 258.31L1004.38 223.81L1026.38 206.81H1053.88L1080.38 236.81L1064.88 283.81L1030.88 297.81V380.31L1080.38 370.31V283.81L1100.38 228.31L1122.38 199.31H1169.88L1195.38 236.81L1179.88 297.81H1122.38V380.31H1195.38V351.81H1156.38L1169.88 316.31H1220.88L1291.88 331.31V351.81H1246.38V380.31L1332.38 392.31L1410.38 443.31L1521.88 451.81L1718.38 478.81L1742.38 537.81L1757.38 565.31L1808.38 632.81L1797.88 686.81L1742.38 734.31L1587.88 778.31L1354.38 812.31H919.375L624.875 778.31L465.875 734.31L406.375 686.81L394.5 639.31M394.5 639.31V553.31" stroke="#FFA200" stroke-width="24"/>
<path d="M1008.88 753.31V715.31V699.31L1060.38 572.31H1213.88L1244.88 608.81L1355.88 710.31V748.81L1008.88 753.31Z" stroke="#FFA200" stroke-width="24"/>
<path d="M417.375 860.31L395.875 916.31L430.375 982.31L543.375 1042.31L947.875 1093.31H1253.88L1421.38 1076.81L1616.38 1042.31L1740.38 996.81L1814.88 949.31L1796.88 870.81L1740.38 830.81L1643.88 796.31L1601.88 778.31L1687.88 830.81L1759.38 879.31L1772.38 925.81L1731.38 949.31L1625.88 977.31L1535.88 1003.81L1291.88 1031.31H1022.38L831.375 1023.31L618.875 975.81L499.375 936.31L485.375 887.31L524.875 851.81L625.375 796.31L590.875 778.31L499.375 816.31L417.375 860.31Z" stroke="#FFA200" stroke-width="24"/>
<path d="M400.375 939.81V969.81L335.375 986.31L340.375 1030.81L361.875 1115.31L395.375 1138.31L410.375 1146.31V1288.81L470.875 1338.81L568.375 1387.81L808.875 1443.31L970.375 1450.31L1138.38 1458.81L1446.38 1427.81L1498.88 1418.81L1576.88 1427.81L1588.88 1383.31L1741.88 1348.31V1374.81L1751.88 1367.81L1758.88 1329.31L1798.38 1285.31V1182.81L1805.38 958.31" stroke="#FFA200" stroke-width="24"/>
<path d="M943.375 1089.81V1429.81L1184.88 1448.31V1089.81H943.375Z" stroke="#FFA200" stroke-width="24"/>
<path d="M311.375 1218.31L399.875 1156.81V1161.81V1283.31L439.375 1319.81L534.875 1372.81L653.375 1401.81L865.875 1447.81L1166.38 1453.81L1385.38 1434.31L1504.38 1417.81L1576.88 1427.31L1596.38 1384.81L1669.88 1374.31L1780.38 1434.31L1804.88 1515.31V1642.31L1763.38 1708.31L1619.38 1781.81L1476.88 1818.81L1262.38 1838.31H925.375L678.875 1790.81L458.375 1723.81L340.375 1653.31L298.875 1579.81V1463.31V1332.81L289.875 1294.81L311.375 1218.31Z" stroke="#FFA200" stroke-width="24"/>
<path d="M2180.88 1567.81L1797.88 1460.81L1812.38 1622.31L1781.88 1683.81L1681.88 1761.31L1503.38 1818.31L1331.88 1838.81L1211.38 1856.81V1879.81L1294.88 1944.31L1481.38 2022.31L1371.38 2067.81H1223.38H777.875L434.875 1944.31L404.375 1868.31L641.375 1792.31C602.375 1776.31 522.275 1744.31 513.875 1744.31C505.475 1744.31 401.042 1690.31 349.875 1663.31L298.875 1591.31V1333.31L289.875 1299.81L307.375 1222.81L378.375 1172.81V1150.31L330.875 1120.31L95.875 1172.81L20.875 1202.81V1222.81V1422.31V1744.31V1831.31L12.375 2020.81L182.875 2086.31L251.875 2157.31V2190.81L261.375 2216.31L324.875 2275.81L447.375 2349.81L591.375 2373.31L669.875 2338.31L750.375 2292.81L790.375 2317.81L786.375 2355.31L844.375 2379.31L885.875 2373.31L901.375 2355.31L1072.88 2419.81L1415.88 2292.81L1470.88 2312.81L1772.38 2192.31L1781.88 2148.81L2180.88 1996.31V1825.81V1567.81Z" stroke="#FFA200" stroke-width="24"/>
</svg>
