<svg width="1531" height="825" viewBox="0 0 1531 825" fill="none" xmlns="http://www.w3.org/2000/svg">
<path d="M644 392.31L695 383.31L699.5 258.31L713.5 223.81L735.5 206.81H763L789.5 236.81L774 283.81L740 297.81V380.31L789.5 370.31V283.81L809.5 228.31L831.5 199.31H879L904.5 236.81L889 297.81H831.5V380.31H904.5V351.81H865.5L879 316.31H930L1001 331.31V351.81H955.5V380.31L1041.5 392.31L1119.5 443.31L1231 451.81L1427.5 478.81L1451.5 537.81L1466.5 565.31L1517.5 632.81L1507 686.81L1451.5 734.31L1297 778.31L1063.5 812.31H628.5L334 778.31L175 734.31L115.5 686.81L103.625 639.31M102 632.81L103.625 639.31M103.625 639.31V553.31M102 544.81L61 461.31V436.81L28.5 358.31L12 286.31V194.81L43 109.81L76 71.3096L113 46.8096V19.8096L127 14.8096L132.5 25.3096L133.5 44.3096L154.5 40.8096L168.5 25.3096H186.5L278.5 40.8096L292 62.3096L307.5 46.8096L328 40.8096L347 53.8096L360 66.8096V84.8096L464 105.81L505.5 132.31L516 146.81L540 155.81L562.5 175.81L594 155.81H632.5L682.5 165.81L704.5 175.81L720.5 209.81V230.31L707.5 242.31H677L671.5 234.31L673.5 230.31L682 228.31V215.31L673.5 202.81L659.5 234.31L596.5 277.31L594 314.31L650 432.81L682.5 528.81L704.5 570.81L694.5 618.81L596.5 660.81L526.5 670.81L450 679.81L380.5 670.81L347 588.81L237.5 570.81L208 544.81L170 528.81L102 544.81ZM718 753.31L1065 748.81V710.31L954 608.81L923 572.31H769.5L718 699.31V753.31Z" stroke="#FFA200" stroke-width="24"/>
</svg>
