<svg width="1507" height="706" viewBox="0 0 1507 706" fill="none" xmlns="http://www.w3.org/2000/svg">
<path d="M78.0938 174.733V204.733L13.0938 221.233L18.0938 265.733L39.5938 350.233L73.0938 373.233L88.0938 381.233V523.733L148.594 573.733L246.094 622.733L486.594 678.233L648.094 685.233L816.094 693.733L1124.09 662.733L1176.59 653.733L1254.59 662.733L1266.59 618.233L1419.59 583.233V609.733L1429.59 602.733L1436.59 564.233L1476.09 520.233V417.733L1483.09 193.233M73.5938 151.233L95.0938 95.2334L177.094 51.2334L268.594 13.2334L303.094 31.2334L202.594 86.7334L163.094 122.233L177.094 171.233L296.594 210.733L509.094 258.233L700.094 266.233H969.594L1213.59 238.733L1303.59 212.233L1409.09 184.233L1450.09 160.733L1437.09 114.233L1365.59 65.7334L1279.59 13.2334L1321.59 31.2334L1418.09 65.7334L1474.59 105.733L1492.59 184.233L1418.09 231.733L1294.09 277.233L1099.09 311.733L931.594 328.233H625.594L221.094 277.233L108.094 217.233L73.5938 151.233ZM621.094 664.733V324.733H862.594V683.233L621.094 664.733Z" stroke="#FFA200" stroke-width="24"/>
</svg>
